HIERARCHY
ROOT Hips
{
	OFFSET 15.585500 22.159004 44.358299
	CHANNELS 6 Xposition Yposition Zposition Zrotation Xrotation Yrotation
	JOINT Chest
	{
		OFFSET -0.128500 0.160400 6.566002
		CHANNELS 6 Xposition Yposition Zposition Zrotation Xrotation Yrotation
		JOINT Chest2
		{
			OFFSET 0.000000 0.000000 3.554802
			CHANNELS 6 Xposition Yposition Zposition Zrotation Xrotation Yrotation
			JOINT Neck
			{
				OFFSET 0.000000 0.000000 8.267998
				CHANNELS 6 Xposition Yposition Zposition Zrotation Xrotation Yrotation
				JOINT Head
				{
					OFFSET 0.000000 0.000002 2.173897
					CHANNELS 6 Xposition Yposition Zposition Zrotation Xrotation Yrotation
					End Site
					{
						OFFSET 0.000000 0.000000 7.718697
					}
				}
			}
			JOINT LeftCollar
			{
				OFFSET 2.057500 0.117599 5.946301
				CHANNELS 6 Xposition Yposition Zposition Zrotation Xrotation Yrotation
				JOINT LeftShoulder
				{
					OFFSET 4.957699 0.000000 0.000000
					CHANNELS 6 Xposition Yposition Zposition Zrotation Xrotation Yrotation
					JOINT LeftElbow
					{
						OFFSET 0.000000 0.000000 -8.465500
						CHANNELS 6 Xposition Yposition Zposition Zrotation Xrotation Yrotation
						JOINT LeftWrist
						{
							OFFSET 0.000000 -0.000002 -14.594898
							CHANNELS 6 Xposition Yposition Zposition Zrotation Xrotation Yrotation
							End Site
							{
								OFFSET 0.000000 0.000000 -2.173901
							}
						}
					}
				}
			}
			JOINT RightCollar
			{
				OFFSET -3.048500 -0.728800 6.604099
				CHANNELS 6 Xposition Yposition Zposition Zrotation Xrotation Yrotation
				JOINT RightShoulder
				{
					OFFSET -3.710299 0.000000 0.000000
					CHANNELS 6 Xposition Yposition Zposition Zrotation Xrotation Yrotation
					JOINT RightElbow
					{
						OFFSET 0.000000 0.000000 -10.450901
						CHANNELS 6 Xposition Yposition Zposition Zrotation Xrotation Yrotation
						JOINT RightWrist
						{
							OFFSET 0.000000 0.000000 -12.539200
							CHANNELS 6 Xposition Yposition Zposition Zrotation Xrotation Yrotation
							End Site
							{
								OFFSET 0.000000 -0.000002 -2.173901
							}
						}
					}
				}
			}
		}
	}
	JOINT LeftHip
	{
		OFFSET 2.442599 -0.601400 -2.767502
		CHANNELS 6 Xposition Yposition Zposition Zrotation Xrotation Yrotation
		JOINT LeftKnee
		{
			OFFSET 0.000000 -0.000002 -17.033703
			CHANNELS 6 Xposition Yposition Zposition Zrotation Xrotation Yrotation
			JOINT LeftAnkle
			{
				OFFSET 0.000000 -0.000002 -19.318800
				CHANNELS 6 Xposition Yposition Zposition Zrotation Xrotation Yrotation
				End Site
				{
					OFFSET 0.000000 -8.281900 0.000000
				}
			}
		}
	}
	JOINT RightHip
	{
		OFFSET -3.126200 -0.601400 -2.283501
		CHANNELS 6 Xposition Yposition Zposition Zrotation Xrotation Yrotation
		JOINT RightKnee
		{
			OFFSET 0.000000 -0.000002 -16.919401
			CHANNELS 6 Xposition Yposition Zposition Zrotation Xrotation Yrotation
			JOINT RightAnkle
			{
				OFFSET 0.000000 -0.000002 -18.035900
				CHANNELS 6 Xposition Yposition Zposition Zrotation Xrotation Yrotation
				End Site
				{
					OFFSET 0.000000 -9.230099 0.000000
				}
			}
		}
	}
}
MOTION
Frames: 6
Frame Time: 0.041667
24.652596 40.391106 8.391403 5.693256 -4.956465 5.208145 -0.128502 0.160399 6.566004 -5.060467 21.001187 0.671531 0.000000 -0.000007 3.554804 14.489794 -10.481051 1.518734 -0.000003 0.000006 8.267998 -48.002873 3.942814 10.093957 0.000003 0.000005 2.173899 -4.311607 4.062712 -8.639999 2.057498 0.117606 5.946305 -21.819374 6.153444 -0.393743 4.957698 0.000001 -0.000000 -9.821659 -15.338756 -115.804969 0.000001 -0.000001 -8.465498 -87.262777 -133.266512 -114.803992 -0.000006 -0.000007 -14.594901 -26.328638 -36.713646 -61.923117 -3.048505 -0.728797 6.604098 33.291715 1.065676 -30.371597 -3.710291 0.000002 0.000004 -2.630757 -12.391049 78.704604 0.000004 -0.000000 -10.450887 -78.696948 -21.374493 -7.767984 0.000003 0.000004 -12.539192 649.444221 -10.622345 -34.426199 2.442593 -0.601400 -2.767504 128.921501 -7.197213 92.346678 -0.000001 -0.000006 -17.033701 -164.802520 48.330589 160.392800 -0.000002 -0.000003 -19.318802 -131.374809 120.939428 391.560893 -3.126198 -0.601404 -2.283502 -129.917861 -31.134198 -85.144407 -0.000003 -0.000001 -16.919392 327.375584 -62.415635 -202.615540 0.000002 -0.000002 -18.035896 189.102803 53.301328 -186.838226
24.633099 40.393108 8.385696 5.695769 -4.995816 5.107221 -0.128502 0.160404 6.566004 -5.072763 21.126977 0.691462 -0.000003 -0.000003 3.554803 14.521303 -10.467999 1.526996 0.000003 0.000004 8.268003 -48.003253 4.240658 10.188443 0.000002 0.000006 2.173901 -4.301333 4.139069 -8.596681 2.057506 0.117609 5.946307 -21.282164 5.950150 -0.644031 4.957699 0.000008 0.000004 -10.502416 -14.597170 -114.693575 0.000000 0.000006 -8.465501 -87.092883 -132.446275 -113.280832 -0.000002 -0.000001 -14.594899 -28.506742 -35.974135 -63.356138 -3.048500 -0.728796 6.604099 33.343833 1.092774 -30.334373 -3.710288 0.000005 0.000001 -2.395847 -12.319445 78.827445 0.000000 0.000003 -10.450891 -78.628427 -20.525787 -7.556389 0.000007 0.000000 -12.539194 649.384443 -10.446879 -34.745251 2.442597 -0.601392 -2.767503 128.971990 -7.101568 92.304461 0.000000 -0.000001 -17.033707 -164.785745 48.265317 160.338472 -0.000001 0.000001 -19.318802 -131.361244 120.907093 391.604607 -3.126198 -0.601398 -2.283500 -129.875747 -31.169302 -85.115584 -0.000003 -0.000004 -16.919394 327.313265 -62.430012 -202.636714 0.000002 0.000001 -18.035896 188.947471 53.291363 -186.633266
24.615000 40.394501 8.380600 5.697268 -5.034929 5.006584 -0.128500 0.160400 6.566008 -5.084845 21.251937 0.712676 -0.000001 0.000010 3.554808 14.542183 -10.459206 1.532313 0.000004 -0.000009 8.268003 -48.000838 4.536693 10.280172 0.000001 0.000006 2.173892 -4.293232 4.218323 -8.540689 2.057505 0.117595 5.946308 -21.132283 5.846929 -0.582745 4.957696 0.000001 -0.000002 -10.868850 -13.945971 -113.921729 0.000002 0.000002 -8.465502 -86.938698 -131.659696 -111.695566 0.000001 -0.000004 -14.594900 -30.469860 -35.749517 -64.582731 -3.048503 -0.728810 6.604100 33.382481 1.112127 -30.297380 -3.710286 0.000005 0.000004 -2.153211 -12.241815 78.957854 0.000004 0.000003 -10.450888 -78.693171 -19.678016 -7.395703 0.000005 0.000000 -12.539189 649.495966 -10.286356 -34.992039 2.442598 -0.601402 -2.767502 129.022191 -7.002915 92.257346 0.000000 -0.000001 -17.033703 -164.761990 48.198449 160.277028 -0.000004 0.000001 -19.318804 -131.340904 120.877983 391.643511 -3.126196 -0.601401 -2.283497 -129.837921 -31.202111 -85.089233 -0.000005 -0.000003 -16.919394 327.262886 -62.442416 -202.654868 0.000001 -0.000005 -18.035898 188.803449 53.281449 -186.440026
24.598297 40.395504 8.375912 5.697442 -5.072871 4.906824 -0.128497 0.160401 6.566007 -5.095897 21.375214 0.733409 0.000001 0.000002 3.554803 14.554404 -10.454346 1.535285 -0.000004 0.000003 8.268004 -47.997505 4.829394 10.370758 -0.000000 0.000006 2.173898 -4.260427 4.297675 -8.465510 2.057500 0.117605 5.946306 -20.981165 5.749037 -0.566076 4.957699 0.000007 0.000001 -11.216491 -13.334186 -113.149897 -0.000005 0.000000 -8.465496 -86.782826 -130.907119 -110.053930 -0.000002 0.000000 -14.594897 -32.391837 -35.486279 -65.760699 -3.048508 -0.728802 6.604099 33.407169 1.124863 -30.257598 -3.710297 -0.000001 -0.000001 -1.906491 -12.162484 79.091227 -0.000001 -0.000001 -10.450892 -78.883829 -18.840071 -7.281514 0.000001 0.000008 -12.539192 649.776058 -10.144269 -35.160192 2.442598 -0.601395 -2.767501 129.071546 -6.902982 92.205812 -0.000001 -0.000000 -17.033709 -164.732333 48.130239 160.211649 -0.000002 -0.000000 -19.318800 -131.316288 120.853476 391.678783 -3.126196 -0.601401 -2.283500 -129.804426 -31.234626 -85.064972 -0.000004 0.000000 -16.919392 327.224364 -62.452811 -202.666999 0.000001 -0.000001 -18.035900 188.671695 53.271449 -186.256977
24.583199 40.395908 8.371498 5.696052 -5.108502 4.808407 -0.128497 0.160401 6.566003 -5.105408 21.495696 0.752413 -0.000003 -0.000002 3.554803 14.559428 -10.453052 1.536302 0.000000 0.000004 8.268003 -47.994582 5.118271 10.461768 0.000000 0.000001 2.173894 -4.346110 4.387804 -8.440430 2.057500 0.117603 5.946307 -20.828624 5.655414 -0.585832 4.957695 0.000009 0.000002 -11.546915 -12.742789 -112.385012 0.000000 -0.000001 -8.465498 -86.611935 -130.189976 -108.364277 0.000006 -0.000004 -14.594894 -34.267332 -35.186840 -66.884791 -3.048507 -0.728799 6.604101 33.418162 1.132681 -30.211525 -3.710295 0.000001 0.000005 -1.659684 -12.087017 79.222422 0.000005 0.000001 -10.450889 -79.180232 -18.021119 -7.205291 0.000003 0.000003 -12.539198 650.208218 -10.022423 -35.243568 2.442594 -0.601400 -2.767501 129.119494 -6.804558 92.151075 -0.000001 0.000003 -17.033703 -164.696420 48.064738 160.143607 -0.000003 -0.000003 -19.318798 -131.286181 120.831620 391.706923 -3.126194 -0.601398 -2.283499 -129.774892 -31.268360 -85.042658 -0.000005 -0.000002 -16.919397 327.194502 -62.461008 -202.672367 0.000003 0.000002 -18.035892 188.550678 53.261320 -186.082029
24.569500 40.395905 8.367596 5.743694 -5.192394 4.650884 -0.128500 0.160399 6.566005 -5.187183 21.661346 0.844030 -0.000004 -0.000002 3.554805 14.558717 -10.454816 1.535814 0.000002 0.000006 8.268000 -47.993243 5.403557 10.554674 0.000002 0.000006 2.173901 -4.277032 4.467675 -8.331927 2.057504 0.117600 5.946311 -20.674935 5.564996 -0.632404 4.957697 0.000006 0.000000 -11.945407 -12.131822 -111.771989 -0.000002 0.000005 -8.465499 -86.536106 -129.622989 -106.779230 0.000001 -0.000006 -14.594897 -36.093346 -34.853837 -67.951797 -3.048501 -0.728797 6.604101 33.416496 1.137594 -30.155722 -3.710291 0.000001 0.000001 -1.416615 -12.021605 79.346280 0.000005 0.000000 -10.450893 -79.561021 -17.244981 -7.027454 0.000005 0.000002 -12.539192 650.766709 -9.792727 -35.269113 2.442595 -0.601402 -2.767502 129.109222 -6.694346 92.009294 -0.000000 0.000003 -17.033701 -164.656777 48.002651 160.077641 -0.000002 0.000001 -19.318806 -131.254352 120.813397 391.729708 -3.126196 -0.601409 -2.283498 -129.795492 -31.389446 -85.021840 -0.000005 -0.000003 -16.919395 327.170815 -62.466513 -202.671206 0.000001 0.000002 -18.035896 188.438854 53.250849 -185.913501
